<svg width="44" height="66" viewBox="0 0 44 66" fill="none" xmlns="http://www.w3.org/2000/svg">
<path d="M38.966 10.0988L26.8226 1.52707C23.9382 -0.509155 20.0621 -0.508895 17.1775 1.52707L5.0342 10.099C2.11378 12.1604 0.370331 15.5252 0.370331 19.0999V57.0778C0.370331 61.9976 4.37278 66 9.29254 66H34.7076C39.6274 66 43.6298 61.9976 43.6298 57.0778V19.0997C43.6298 15.525 41.8863 12.1603 38.966 10.0988ZM39.4732 57.0776C39.4732 59.7053 37.3354 61.8431 34.7076 61.8431H9.29241C6.66464 61.8431 4.52683 59.7053 4.52683 57.0776V19.0997C4.52683 16.8737 5.61249 14.7783 7.43115 13.4947L19.5745 4.92291C21.025 3.89895 22.9746 3.89882 24.4254 4.92291L36.5688 13.4947C38.3874 14.7784 39.4731 16.8737 39.4731 19.0997V57.0776H39.4732Z" fill="white"/>
<path d="M22 14.062C23.5188 14.062 24.75 12.8308 24.75 11.312C24.75 9.79323 23.5188 8.56201 22 8.56201C20.4812 8.56201 19.25 9.79323 19.25 11.312C19.25 12.8308 20.4812 14.062 22 14.062Z" fill="white"/>
<path d="M22.1096 35.7811C20.5275 35.7259 19.6198 34.5863 19.6198 33.361C19.6198 30.9207 22.8478 30.0254 24.1086 32.1169C24.701 33.0999 25.9783 33.4166 26.9613 32.824C27.9444 32.2314 28.2611 30.9542 27.6685 29.9711C26.8337 28.5861 25.5128 27.5735 24.0035 27.0959V25.9301C24.0035 24.7824 23.0729 23.8518 21.9252 23.8518C20.7774 23.8518 19.8469 24.7824 19.8469 25.9301V27.1644C17.2959 28.0683 15.4632 30.5041 15.4632 33.361C15.4632 37.0588 18.517 39.9341 21.9636 39.9341C23.2961 39.9341 24.3801 41.018 24.3801 42.3505C24.3801 44.791 21.1521 45.6862 19.8913 43.5945C19.2989 42.6115 18.0216 42.2949 17.0386 42.8875C16.0555 43.4801 15.7388 44.7573 16.3314 45.7404C17.1662 47.1254 18.4871 48.138 19.9964 48.6157V49.7815C19.9964 50.9293 20.927 51.8598 22.0747 51.8598C23.2225 51.8598 24.153 50.9293 24.153 49.7815V48.5473C26.704 47.6433 28.5367 45.2075 28.5367 42.3505C28.5367 38.7749 25.6667 35.8591 22.1096 35.7811Z" fill="white"/>
</svg>
